<svg width="170" height="32" viewBox="0 0 170 32" fill="none" xmlns="http://www.w3.org/2000/svg">
<path d="M63.638 25C63.3156 25 63.0501 24.8957 62.8415 24.6871C62.6329 24.4785 62.5286 24.213 62.5286 23.8907V3.89422C62.5286 3.57185 62.6329 3.30637 62.8415 3.09777C63.0501 2.88918 63.3156 2.78489 63.638 2.78489C63.9603 2.78489 64.2258 2.88918 64.4344 3.09777C64.643 3.30637 64.7473 3.57185 64.7473 3.89422V12.7689H78.6282V3.89422C78.6282 3.57185 78.7325 3.30637 78.9411 3.09777C79.1497 2.88918 79.4152 2.78489 79.7375 2.78489C80.0599 2.78489 80.3254 2.88918 80.534 3.09777C80.7426 3.30637 80.8469 3.57185 80.8469 3.89422V23.8907C80.8469 24.213 80.7426 24.4785 80.534 24.6871C80.3254 24.8957 80.0599 25 79.7375 25C79.4152 25 79.1497 24.8957 78.9411 24.6871C78.7325 24.4785 78.6282 24.213 78.6282 23.8907V14.76H64.7473V23.8907C64.7473 24.213 64.643 24.4785 64.4344 24.6871C64.2258 24.8957 63.9603 25 63.638 25ZM88.4913 31.7698C88.3396 31.7698 88.1689 31.7319 87.9793 31.656C87.3346 31.3716 87.1544 30.9164 87.4389 30.2907L96.6264 10.0382C96.9109 9.43141 97.366 9.26074 97.9917 9.52622C98.6365 9.7917 98.8166 10.2373 98.5322 10.8631L89.3162 31.1156C89.1266 31.5517 88.8516 31.7698 88.4913 31.7698ZM91.6486 24.5164C91.3642 24.6492 91.0987 24.6776 90.8522 24.6018C90.6057 24.507 90.4066 24.3173 90.2549 24.0329L83.9117 10.8916C83.779 10.6071 83.76 10.3416 83.8549 10.0951C83.9497 9.84859 84.1393 9.65896 84.4237 9.52622C84.7082 9.39348 84.9737 9.37452 85.2202 9.46933C85.4667 9.54518 85.6563 9.72533 85.7891 10.0098L92.0184 23.1511C92.1701 23.4356 92.2175 23.701 92.1606 23.9476C92.1037 24.1941 91.9331 24.3837 91.6486 24.5164ZM108.853 25.1422C107.374 25.1422 106.037 24.8009 104.843 24.1182C103.667 23.4356 102.728 22.5064 102.027 21.3307C101.344 20.136 100.993 18.7991 100.974 17.32V3.89422C100.974 3.55289 101.069 3.2874 101.259 3.09777C101.467 2.88918 101.742 2.78489 102.084 2.78489C102.406 2.78489 102.662 2.88918 102.852 3.09777C103.06 3.2874 103.164 3.55289 103.164 3.89422V12.2569C103.79 11.3656 104.615 10.6545 105.639 10.1236C106.682 9.57363 107.839 9.29866 109.109 9.29866C110.569 9.29866 111.878 9.64948 113.035 10.3511C114.191 11.0338 115.102 11.9724 115.765 13.1671C116.448 14.3618 116.789 15.7081 116.789 17.2062C116.789 18.7233 116.438 20.0791 115.737 21.2738C115.054 22.4684 114.116 23.4166 112.921 24.1182C111.726 24.8009 110.37 25.1422 108.853 25.1422ZM108.853 23.1511C109.953 23.1511 110.939 22.8951 111.812 22.3831C112.684 21.8521 113.366 21.141 113.86 20.2498C114.372 19.3585 114.628 18.344 114.628 17.2062C114.628 16.0874 114.372 15.0824 113.86 14.1911C113.366 13.2809 112.684 12.5698 111.812 12.0578C110.939 11.5458 109.953 11.2898 108.853 11.2898C107.772 11.2898 106.796 11.5458 105.924 12.0578C105.051 12.5698 104.369 13.2809 103.876 14.1911C103.382 15.0824 103.136 16.0874 103.136 17.2062C103.136 18.344 103.382 19.3585 103.876 20.2498C104.369 21.141 105.051 21.8521 105.924 22.3831C106.796 22.8951 107.772 23.1511 108.853 23.1511ZM121.569 15.4142C121.626 14.2385 121.929 13.1861 122.479 12.2569C123.048 11.3277 123.778 10.5976 124.669 10.0667C125.58 9.5357 126.585 9.27022 127.684 9.27022C128.557 9.27022 129.23 9.39348 129.704 9.64C130.178 9.88652 130.358 10.2468 130.244 10.7209C130.169 11.0053 130.036 11.195 129.846 11.2898C129.676 11.3846 129.457 11.4225 129.192 11.4036C128.945 11.3846 128.661 11.3656 128.339 11.3467C127.277 11.2519 126.329 11.3656 125.494 11.688C124.679 11.9914 124.025 12.4655 123.532 13.1102C123.057 13.755 122.82 14.523 122.82 15.4142H121.569ZM121.74 25C121.398 25 121.133 24.9052 120.943 24.7156C120.753 24.5259 120.659 24.2604 120.659 23.9191V10.5218C120.659 10.1804 120.753 9.91496 120.943 9.72533C121.133 9.5357 121.398 9.44089 121.74 9.44089C122.081 9.44089 122.346 9.5357 122.536 9.72533C122.726 9.91496 122.82 10.1804 122.82 10.5218V23.9191C122.82 24.2604 122.726 24.5259 122.536 24.7156C122.346 24.9052 122.081 25 121.74 25ZM134.824 25C134.483 25 134.208 24.9052 133.999 24.7156C133.81 24.507 133.715 24.232 133.715 23.8907V10.5502C133.715 10.2089 133.81 9.94341 133.999 9.75378C134.208 9.54518 134.483 9.44089 134.824 9.44089C135.147 9.44089 135.403 9.54518 135.592 9.75378C135.801 9.94341 135.905 10.2089 135.905 10.5502V23.8907C135.905 24.232 135.801 24.507 135.592 24.7156C135.403 24.9052 135.147 25 134.824 25ZM134.796 6.48266C134.379 6.48266 134.018 6.33096 133.715 6.02755C133.411 5.72415 133.26 5.35437 133.26 4.91822C133.26 4.44415 133.411 4.07437 133.715 3.80889C134.037 3.52444 134.407 3.38222 134.824 3.38222C135.222 3.38222 135.573 3.52444 135.877 3.80889C136.199 4.07437 136.36 4.44415 136.36 4.91822C136.36 5.35437 136.208 5.72415 135.905 6.02755C135.602 6.33096 135.232 6.48266 134.796 6.48266ZM148.138 25.1422C146.64 25.1422 145.294 24.8009 144.099 24.1182C142.904 23.4166 141.956 22.4684 141.254 21.2738C140.572 20.0791 140.23 18.7233 140.23 17.2062C140.23 15.7081 140.562 14.3618 141.226 13.1671C141.909 11.9724 142.828 11.0338 143.985 10.3511C145.142 9.64948 146.45 9.29866 147.91 9.29866C149.181 9.29866 150.328 9.57363 151.352 10.1236C152.376 10.6545 153.201 11.3656 153.827 12.2569V3.89422C153.827 3.55289 153.931 3.2874 154.14 3.09777C154.348 2.88918 154.614 2.78489 154.936 2.78489C155.259 2.78489 155.524 2.88918 155.733 3.09777C155.941 3.2874 156.046 3.55289 156.046 3.89422V17.32C156.008 18.7991 155.638 20.136 154.936 21.3307C154.254 22.5064 153.315 23.4356 152.12 24.1182C150.944 24.8009 149.617 25.1422 148.138 25.1422ZM148.138 23.1511C149.238 23.1511 150.214 22.8951 151.068 22.3831C151.94 21.8521 152.623 21.141 153.116 20.2498C153.628 19.3585 153.884 18.344 153.884 17.2062C153.884 16.0874 153.628 15.0824 153.116 14.1911C152.623 13.2809 151.94 12.5698 151.068 12.0578C150.214 11.5458 149.238 11.2898 148.138 11.2898C147.057 11.2898 146.08 11.5458 145.208 12.0578C144.336 12.5698 143.644 13.2809 143.132 14.1911C142.62 15.0824 142.364 16.0874 142.364 17.2062C142.364 18.344 142.62 19.3585 143.132 20.2498C143.644 21.141 144.336 21.8521 145.208 22.3831C146.08 22.8951 147.057 23.1511 148.138 23.1511Z" fill="black"/>
<path fill-rule="evenodd" clip-rule="evenodd" d="M22.0676 2.96296H8.58307e-06L9.29163 9.63511H31.3592L22.0676 2.96296ZM9.29162 9.63512V25.4815L0 18.8093V2.96296L9.29162 9.63512Z" fill="#CCCCCC"/>
<path fill-rule="evenodd" clip-rule="evenodd" d="M9.29151 25.4815L31.3591 25.4815L22.0675 18.8093L-0.000110626 18.8093L9.29151 25.4815ZM22.0675 18.8093L22.0675 2.96296L31.3591 9.63511L31.3591 25.4815L22.0675 18.8093Z" fill="black"/>
</svg>
